<?xml version="1.0" encoding="UTF-8"?>
<svg version="1.1" xmlns="http://www.w3.org/2000/svg" width="416" height="415">
<path d="M0 0 C137.28 0 274.56 0 416 0 C416 136.95 416 273.9 416 415 C278.72 415 141.44 415 0 415 C0 278.05 0 141.1 0 0 Z " fill="#97C0CC" transform="translate(0,0)"/>
<path d="M0 0 C137.28 0 274.56 0 416 0 C416 136.95 416 273.9 416 415 C278.72 415 141.44 415 0 415 C0 278.05 0 141.1 0 0 Z M163 23 C161.93591164 23.25398056 161.93591164 23.25398056 160.85032654 23.51309204 C133.47061951 30.05328012 106.78096072 43.22766581 85.6484375 61.94140625 C85.08141113 62.43914551 84.51438477 62.93688477 83.93017578 63.44970703 C82.84602318 64.40972243 81.77305834 65.382595 80.71435547 66.37060547 C76.58036954 70.04778261 73.2476478 70.82793653 68 72 C63.67343615 74.61125358 59.99815234 78.33764454 58 83 C57.90460937 84.23878906 57.80921875 85.47757812 57.7109375 86.75390625 C57.19262884 91.20348003 55.25158147 94.11752613 52.5 97.5625 C51.58280288 98.78052587 50.67016476 100.00199587 49.76171875 101.2265625 C49.29942871 101.84821289 48.83713867 102.46986328 48.36083984 103.11035156 C20.67584743 141.5534519 11.88643668 191.72242418 18.90234375 237.96484375 C27.39181151 287.45025133 54.26447121 332.39951852 95 362 C95.86117432 362.62769287 95.86117432 362.62769287 96.73974609 363.26806641 C118.53877804 378.94013341 142.46479487 388.92465829 168.62792969 394.47998047 C170.68214771 394.93031851 172.72190411 395.44569036 174.7578125 395.97265625 C201.0514094 402.18487969 232.40593594 398.67165204 258 391 C258.77456543 390.7736084 259.54913086 390.5472168 260.34716797 390.31396484 C275.65722338 385.77043224 292.24035093 380.0684137 305.33203125 370.7109375 C308.20030186 368.87154874 309.88597148 368.46212704 313.25 368.3125 C316.76085443 368.18124592 316.76085443 368.18124592 320 367 C320.16242188 365.36611328 320.16242188 365.36611328 320.328125 363.69921875 C321.14134268 359.22179352 322.13512689 358.42962634 325.75 355.8125 C326.74 355.05710937 327.73 354.30171875 328.75 353.5234375 C329.27851563 353.12092773 329.80703125 352.71841797 330.3515625 352.30371094 C338.24921772 346.05763883 345.71641261 338.86159236 352 331 C352.75539063 330.07058594 353.51078125 329.14117187 354.2890625 328.18359375 C360.91476817 319.89138726 366.56995478 311.10958271 372 302 C372.55429687 301.08992188 373.10859375 300.17984375 373.6796875 299.2421875 C378.43332148 291.04538079 381.71741595 282.14950659 385.10693359 273.32495117 C385.67431202 271.84787496 386.24930162 270.37368257 386.83447266 268.90356445 C388.6782892 264.19345129 389.94794175 259.50628221 391 254.5625 C391.15210938 253.88251953 391.30421875 253.20253906 391.4609375 252.50195312 C392.00496837 250.00699187 392.50164789 247.50450071 393 245 C393.2580542 243.79512939 393.5161084 242.59025879 393.78198242 241.34887695 C395.94042903 230.77598039 396.43765277 220.52441374 396.33618164 209.74975586 C396.31230661 207.04055551 396.31568674 204.33232798 396.32226562 201.62304688 C396.30842685 193.16827998 396.08844678 185.23493241 394 177 C393.77055967 175.66017778 393.55659374 174.31759908 393.359375 172.97265625 C386.2399702 127.2898088 358.64506313 83.72345686 321.3984375 56.36328125 C320.26869679 55.57112182 319.13569554 54.78359829 318 54 C317.03175293 53.32976807 317.03175293 53.32976807 316.04394531 52.64599609 C298.81936096 40.85240374 280.5841543 32.33949547 260.75 25.875 C260.06123779 25.64538574 259.37247559 25.41577148 258.6628418 25.17919922 C256.12419937 24.37860079 253.5742577 23.6785674 251 23 C250.06340042 22.74905579 250.06340042 22.74905579 249.10787964 22.49304199 C236.28993859 19.15266444 223.94458083 18.37228597 210.73022461 18.47851562 C207.56871681 18.49995784 204.4094864 18.47859086 201.24804688 18.453125 C188.04687901 18.43578057 175.81155419 19.84840727 163 23 Z " fill="#C6E4EF" transform="translate(0,0)"/>
<path d="M0 0 C0.33 0 0.66 0 1 0 C1.00054477 0.621381 1.00108953 1.24276199 1.00165081 1.88297272 C1.01663827 17.02415062 1.05916407 32.16498162 1.13209057 47.30597687 C1.16669839 54.62817189 1.19209053 61.95017948 1.19555664 69.27246094 C1.19860243 75.65688552 1.21917496 82.04097593 1.26052457 88.42527151 C1.28180118 91.80373563 1.29448316 95.18172534 1.28615379 98.56025696 C1.2812522 102.33821361 1.30732533 106.11479106 1.34057617 109.89257812 C1.32763771 111.56061996 1.32763771 111.56061996 1.31443787 113.26235962 C1.41456057 120.05744623 2.4473931 124.80309083 7 130 C12.88953534 134.71162827 18.5926573 134.64799552 25.9375 134.75 C29.588125 134.8325 33.23875 134.915 37 135 C37 148.2 37 161.4 37 175 C45.97511687 175.75691784 45.97511687 175.75691784 49.45890808 173.74656677 C50.01669449 173.16818558 50.5744809 172.58980438 51.14916992 171.99389648 C51.79252289 171.35177216 52.43587585 170.70964783 53.09872437 170.04806519 C54.0398558 169.03427292 54.0398558 169.03427292 55 168 C55.62089508 167.37078644 56.24179016 166.74157288 56.88150024 166.09329224 C58.81896094 164.1189371 60.71641879 162.11099259 62.61328125 160.09765625 C64.03946279 158.61504117 65.46724588 157.13396529 66.89648438 155.65429688 C69.11618938 153.3543586 71.32601845 151.0480596 73.51049805 148.71459961 C75.64416674 146.44108863 77.81177658 144.20509476 79.98828125 141.97265625 C80.62824539 141.27278091 81.26820953 140.57290558 81.92756653 139.8518219 C84.84956134 136.91112298 86.76243293 135.17951187 90.94735718 134.57247925 C93.66986089 134.56510517 96.29686289 134.68811524 99 135 C99.00142502 136.08470581 99.00285004 137.16941162 99.00431824 138.2869873 C99.02101352 148.52713632 99.06386455 158.76688922 99.13209057 169.00682831 C99.1663293 174.2708858 99.19146574 179.53465402 99.19555664 184.79882812 C99.19984622 189.88249254 99.22836399 194.96550476 99.27343178 200.04896545 C99.28638565 201.98491105 99.29072196 203.92093479 99.28615379 205.85691833 C99.28123274 208.57654575 99.30740584 211.29427796 99.34057617 214.01367188 C99.33195053 214.80777466 99.32332489 215.60187744 99.31443787 216.42004395 C99.43575684 222.38337496 101.16414274 226.42553439 105 231 C110.00690785 235.59188654 114.38925141 235.5434741 120.84155273 235.41894531 C122.30366684 235.41517632 122.30366684 235.41517632 123.7953186 235.41133118 C125.90533001 235.40393549 128.01532505 235.38770036 130.12521172 235.36359406 C133.46738833 235.32776269 136.80853717 235.32018962 140.15089417 235.32073975 C149.65079682 235.31811858 159.15012121 235.27157932 168.6496582 235.18896484 C174.46640878 235.14035328 180.28218735 235.13056801 186.09910774 235.14455414 C188.31230601 235.14194625 190.52554037 235.12430301 192.73849297 235.09122467 C195.83646028 235.04560748 198.93086368 235.04920987 202.02905273 235.06347656 C202.93888412 235.03778091 203.84871552 235.01208527 204.78611755 234.98561096 C208.66326771 235.04772889 211.04989255 235.19138427 214.06825447 237.76024628 C215.93959045 239.91009521 215.93959045 239.91009521 217.53242588 242.05099106 C219.3630277 244.48211823 221.62199745 246.12642224 224 248 C224 248.66 224 249.32 224 250 C224.8353125 250.3403125 224.8353125 250.3403125 225.6875 250.6875 C230.46938231 253.40154131 233.61601375 257.77001719 237 262 C238.6454378 263.68762851 240.31288577 265.3540349 242 267 C245.33333333 270.33333333 248.66666667 273.66666667 252 277 C228.1896514 293.64049082 199.58521685 302.44255482 171 306 C170.29061279 306.09877441 169.58122559 306.19754883 168.8503418 306.29931641 C135.49845697 310.61055341 100.2104279 304.69654011 70 290 C69.28521484 289.65485352 68.57042969 289.30970703 67.83398438 288.95410156 C22.03991678 266.55860347 -13.24242922 227.20578133 -30.03857422 179.02050781 C-34.46679834 165.52809159 -37.38225861 152.09407863 -39 138 C-39.0935376 137.30503418 -39.1870752 136.61006836 -39.28344727 135.89404297 C-41.40922163 119.29904489 -40.98843532 101.47717938 -38 85 C-37.8546582 84.18853516 -37.70931641 83.37707031 -37.55957031 82.54101562 C-32.54339973 55.68798268 -21.97165179 30.19614992 -6 8 C-5.40832031 7.17371094 -4.81664062 6.34742187 -4.20703125 5.49609375 C-1.31969557 1.55258303 -1.31969557 1.55258303 0 0 Z " fill="#ED9129" transform="translate(57,91)"/>
<path d="M0 0 C3.19898049 0.0085047 6.3961654 -0.02035005 9.5949707 -0.05200195 C28.14626179 -0.11845263 44.59989851 3.22872551 62.08911133 9.19604492 C62.73082275 9.41258728 63.37253418 9.62912964 64.03369141 9.85223389 C74.13706417 13.27330472 83.62498587 17.18499576 92.90161133 22.44604492 C94.63411133 23.36256836 94.63411133 23.36256836 96.40161133 24.29760742 C110.71757509 32.06273955 123.22005552 42.16399512 134.90161133 53.44604492 C135.88437453 54.36564685 136.86745083 55.28491429 137.85083008 56.20385742 C149.86832073 67.62165327 159.743833 81.04382647 167.90161133 95.44604492 C168.23499512 96.03063477 168.56837891 96.61522461 168.91186523 97.2175293 C180.31030679 117.35067524 187.23224891 138.82984498 190.35864258 161.73510742 C190.78024804 165.37454046 190.78024804 165.37454046 191.90161133 168.44604492 C192.05950741 171.16647435 192.16161093 173.86001478 192.21020508 176.58276367 C192.22533142 177.40246643 192.24045776 178.22216919 192.25604248 179.06671143 C192.29625565 181.7556907 192.32114579 184.44432679 192.33911133 187.13354492 C192.34528473 188.04854767 192.35145813 188.96355042 192.3578186 189.90628052 C192.42988435 215.37999158 188.19503393 240.02265997 177.90161133 263.44604492 C177.22098633 265.01032227 177.22098633 265.01032227 176.52661133 266.60620117 C167.89935446 285.90031096 156.44794428 303.1354563 141.90161133 318.44604492 C140.7282741 319.81535711 139.56107166 321.1899628 138.40161133 322.57104492 C131.72577908 330.21847717 124.3670544 335.80241621 115.90161133 341.44604492 C115.90161133 330.55604492 115.90161133 319.66604492 115.90161133 308.44604492 C127.08911133 308.13354492 127.08911133 308.13354492 130.58984375 308.05810547 C131.51128174 308.02499268 132.43271973 307.99187988 133.38208008 307.95776367 C134.31947021 307.93157959 135.25686035 307.90539551 136.22265625 307.87841797 C139.34612958 307.37430139 141.26328379 306.14475607 143.90161133 304.44604492 C144.56161133 304.44604492 145.22161133 304.44604492 145.90161133 304.44604492 C146.58935538 303.1234602 147.24872506 301.78617989 147.90161133 300.44604492 C148.41244263 299.49310043 148.92327393 298.54015594 149.44958496 297.55833435 C151.67511213 292.29250325 151.33599823 286.84104642 151.3215332 281.21191406 C151.33000275 279.99479233 151.33847229 278.77767059 151.34719849 277.52366638 C151.36652956 274.20115402 151.3723499 270.8792045 151.37045097 267.55667424 C151.37033087 264.77597261 151.37891116 261.99532289 151.38722849 259.21463579 C151.40642919 252.65119295 151.40935834 246.08787728 151.40258789 239.52441406 C151.3959469 232.7685415 151.41882079 226.01321488 151.45590162 219.25745302 C151.48665333 213.44234113 151.49795285 207.6274044 151.49406481 201.81221288 C151.49200319 198.34551263 151.49738468 194.87923756 151.5219574 191.41261482 C151.54847182 187.54471779 151.53445487 183.67752983 151.5168457 179.80957031 C151.53010895 178.67113678 151.54337219 177.53270325 151.55703735 176.35977173 C151.48476584 169.51829572 150.72217642 164.53109563 145.90161133 159.44604492 C140.68086087 154.89525035 135.98436239 153.71012495 129.19067383 153.78662109 C128.36045212 153.77613739 127.53023041 153.76565369 126.67485046 153.75485229 C123.958382 153.72628401 121.24320197 153.73237209 118.52661133 153.73901367 C116.63230812 153.72588755 114.73801888 153.71058053 112.84375 153.69319153 C107.87893246 153.65343562 102.91448185 153.64315714 97.94952393 153.63916016 C92.87484676 153.62981097 87.80038359 153.59238624 82.72583008 153.55737305 C72.78443374 153.49289301 62.8431985 153.45957434 52.90161133 153.44604492 C52.89614288 151.79353226 52.89614288 151.79353226 52.89056396 150.1076355 C52.85360488 139.71973003 52.79582206 129.33212075 52.71770859 118.94444084 C52.67821823 113.60414281 52.6460373 108.26401006 52.63061523 102.92358398 C52.61545906 97.76867278 52.58103164 92.61421591 52.53330231 87.45950699 C52.51847785 85.49399899 52.5105697 83.52842612 52.50972748 81.5628624 C52.5073593 78.80712329 52.48029174 76.05264129 52.44750977 73.29711914 C52.45254013 72.48647507 52.4575705 71.67583099 52.4627533 70.84062195 C52.35133296 64.77734761 50.84288582 61.35396563 46.43097305 56.99208355 C39.81938591 51.80491936 31.53948739 52.73976935 23.5715332 52.78662109 C21.91518958 52.77816031 20.25885591 52.76751273 18.60253906 52.75485229 C14.12367725 52.7267758 9.6452955 52.72916513 5.1663723 52.73714614 C0.47912958 52.74027688 -4.20796177 52.71522024 -8.8951416 52.69319153 C-17.76306079 52.65577763 -26.63082663 52.6436051 -35.49881697 52.64056712 C-45.59803765 52.63587342 -55.697105 52.60294007 -65.79625797 52.56766927 C-86.56361744 52.49577115 -107.33091436 52.4592238 -128.09838867 52.44604492 C-102.99046837 27.33295678 -71.74140915 11.05045577 -37.09838867 3.44604492 C-36.01614014 3.18637939 -34.9338916 2.92671387 -33.81884766 2.65917969 C-22.55131162 0.20426609 -11.50554287 -0.0464959 0 0 Z " fill="#ED9129" transform="translate(204.098388671875,18.553955078125)"/>
<path d="M0 0 C1.0650302 -0.01041829 1.0650302 -0.01041829 2.15157616 -0.02104706 C4.51919105 -0.03927237 6.8857988 -0.02906591 9.25344849 -0.01878357 C10.95562487 -0.02584442 12.65779498 -0.03459014 14.35995483 -0.04489136 C18.97579499 -0.06737855 23.59129214 -0.06444691 28.20716619 -0.05556989 C32.06396625 -0.05045619 35.92070207 -0.0577558 39.7774955 -0.06504196 C48.87858652 -0.08203941 57.97950987 -0.07847733 67.08059692 -0.06175232 C76.46130191 -0.04483602 85.84154138 -0.0606591 95.22219551 -0.0929752 C103.28355626 -0.11969153 111.3447723 -0.12694143 119.40617287 -0.11846012 C124.21757151 -0.11353625 129.02869018 -0.11571704 133.84005356 -0.13624763 C138.36615049 -0.1546365 142.8915794 -0.1486071 147.41764069 -0.12404823 C149.0752161 -0.11905022 150.73284269 -0.12250387 152.39037704 -0.13519669 C168.68571028 -0.25007267 168.68571028 -0.25007267 174.72659302 5.5146637 C179.45589294 10.72902003 179.87002141 14.0496519 179.84011841 20.91163635 C179.84026443 21.77999619 179.84041046 22.64835602 179.84056091 23.54302979 C179.83986262 26.42162041 179.83207412 29.30014683 179.82424927 32.1787262 C179.82238479 34.17126937 179.82096103 36.16381301 179.81996155 38.15635681 C179.81613871 43.40725464 179.80631039 48.65812492 179.79525757 53.90901184 C179.78503845 59.26453783 179.78046285 64.62006827 179.77542114 69.9756012 C179.76468793 80.48863415 179.74761428 91.00164663 179.72659302 101.5146637 C178.10286522 101.51347031 178.10286522 101.51347031 176.44633484 101.51225281 C166.22119481 101.50864306 155.99655622 101.53655117 145.77157688 101.59494209 C140.51533282 101.6239557 135.2595334 101.64204709 130.00320435 101.63478088 C124.92595155 101.62817068 119.84957608 101.65076903 114.77250481 101.69321823 C112.8401699 101.70431934 110.90774571 101.70507675 108.97540474 101.69508743 C95.73909753 101.22104168 95.73909753 101.22104168 84.22006226 106.84590149 C79.4363198 112.19112616 79.26542253 117.21988287 79.21487427 124.0693512 C79.18794746 125.42167343 79.18794746 125.42167343 79.16047668 126.80131531 C79.10655151 129.66405137 79.07253526 132.52662241 79.03909302 135.3896637 C79.00590422 137.33760324 78.97141312 139.28552105 78.93557739 141.2334137 C78.8508353 145.99371096 78.78393943 150.75396078 78.72659302 155.5146637 C78.04315323 155.48715027 77.35971344 155.45963684 76.65556335 155.43128967 C69.29458939 155.55149797 65.73479131 157.37263559 60.58546448 162.54847717 C59.79543533 163.39325623 59.00540619 164.23803528 58.19143677 165.1084137 C57.34609879 165.97027283 56.5007608 166.83213196 55.62980652 167.72010803 C52.94995426 170.46225213 50.30687335 173.23681916 47.66409302 176.0146637 C44.98159557 178.78429731 42.29213365 181.54702985 39.60197449 184.30921936 C37.93418612 186.02710089 36.27240314 187.75083672 34.61720276 189.48085022 C33.8720491 190.25835632 33.12689545 191.03586243 32.35916138 191.83692932 C31.70395004 192.52452332 31.04873871 193.21211731 30.37367249 193.92054749 C27.82940326 196.38300355 26.16395461 196.65230106 22.72659302 196.6396637 C21.67471802 196.64353088 21.67471802 196.64353088 20.60159302 196.6474762 C18.72659302 196.5146637 18.72659302 196.5146637 16.72659302 195.5146637 C16.72659302 182.3146637 16.72659302 169.1146637 16.72659302 155.5146637 C9.47194254 155.67206038 9.47194254 155.67206038 2.21853638 155.87501526 C-4.20992691 155.94509257 -8.0642931 155.36182597 -13.27340698 151.5146637 C-17.48189804 146.96494364 -19.51515982 143.36507972 -19.55429077 137.1521759 C-19.56571106 136.0643985 -19.57713135 134.97662109 -19.58889771 133.85588074 C-19.59113342 132.66723419 -19.59336914 131.47858765 -19.59567261 130.25392151 C-19.60560242 128.99822357 -19.61553223 127.74252563 -19.62576294 126.44877625 C-19.65196359 123.00643904 -19.66489175 119.56417977 -19.67378426 116.12175846 C-19.67965415 113.96882906 -19.68786538 111.81592076 -19.6967926 109.66300201 C-19.72413169 102.92045673 -19.74346955 96.17795991 -19.75119638 89.43536305 C-19.76015196 81.66418721 -19.79522412 73.89371598 -19.85319757 66.12275434 C-19.89650308 60.10814654 -19.91660876 54.09373645 -19.91927862 48.07897449 C-19.92136992 44.49027815 -19.9330788 40.90224461 -19.96891785 37.31371307 C-20.00816173 33.3063723 -19.99927425 29.30049606 -19.98629761 25.29298401 C-20.00472717 24.11243439 -20.02315674 22.93188477 -20.04214478 21.71556091 C-19.97715841 15.30312267 -19.28543528 11.2050555 -15.14678192 6.20605087 C-10.19233944 1.73290441 -6.72185025 0.01488911 0 0 Z " fill="#2A6F7E" transform="translate(77.27340698242188,70.48533630371094)"/>
<path d="M0 0 C1.17861603 0.00373123 1.17861603 0.00373123 2.38104248 0.00753784 C29.93407527 0.14167605 56.31058821 4.08408861 81.6875 15.3125 C82.50661865 15.67456543 83.3257373 16.03663086 84.16967773 16.40966797 C114.43093868 30.02835063 140.91378314 49.29955648 161.6875 75.3125 C162.34621094 76.10398437 163.00492187 76.89546875 163.68359375 77.7109375 C173.0048052 89.00141897 180.59024973 101.08139767 186.76708984 114.34033203 C187.36261433 115.61636565 187.96657822 116.8885089 188.58056641 118.15576172 C201.50511704 144.83289827 207.1407158 173.53071213 207 203 C206.99850952 203.77942963 206.99701904 204.55885925 206.9954834 205.36190796 C206.9330123 223.62328245 204.93009266 240.77761621 199.6875 258.3125 C199.3678125 259.50230469 199.048125 260.69210937 198.71875 261.91796875 C189.8647614 294.65630561 170.90865095 323.06914138 147.6875 347.3125 C146.62402344 348.43785156 146.62402344 348.43785156 145.5390625 349.5859375 C130.63322913 364.97849196 112.4133754 376.21951965 93.6875 386.3125 C93.02669434 386.66973145 92.36588867 387.02696289 91.68505859 387.39501953 C73.59135316 396.97981978 52.88007853 402.45552157 32.6875 405.3125 C31.98197998 405.4141748 31.27645996 405.51584961 30.54956055 405.62060547 C8.57882825 408.2922389 -16.74751658 408.34292275 -38.3125 403.3125 C-39.26479492 403.09207031 -40.21708984 402.87164062 -41.19824219 402.64453125 C-69.64438637 395.81528863 -97.61028337 384.07068747 -120.3125 365.3125 C-120.84810547 364.87019043 -121.38371094 364.42788086 -121.93554688 363.97216797 C-125.76648562 360.79617494 -129.54375876 357.5619265 -133.3125 354.3125 C-134.08851563 353.66152344 -134.86453125 353.01054687 -135.6640625 352.33984375 C-140.36938453 348.35212874 -144.3465442 344.02600699 -148.3125 339.3125 C-149.56546875 337.89130859 -149.56546875 337.89130859 -150.84375 336.44140625 C-167.73007415 317.17583692 -181.48979302 293.76229397 -189.3125 269.3125 C-189.54179199 268.60786621 -189.77108398 267.90323242 -190.00732422 267.17724609 C-193.72745953 255.65827291 -196.55477436 244.28779625 -198.3125 232.3125 C-198.48305908 231.28326416 -198.65361816 230.25402832 -198.8293457 229.19360352 C-199.39917036 224.61629043 -199.52989703 220.12372039 -199.5859375 215.515625 C-199.60472961 214.10785545 -199.60472961 214.10785545 -199.62390137 212.67164612 C-199.84566481 192.05858587 -199.78555571 172.34487772 -194.3125 152.3125 C-193.94366699 150.9522168 -193.94366699 150.9522168 -193.56738281 149.56445312 C-192.03081602 144.06495 -190.27991292 138.67219312 -188.3125 133.3125 C-187.93609375 132.28125 -187.5596875 131.25 -187.171875 130.1875 C-185.98316044 127.17385746 -184.68071159 124.24940663 -183.3125 121.3125 C-182.9829834 120.6004541 -182.6534668 119.8884082 -182.31396484 119.15478516 C-174.35682476 102.12866632 -164.72018721 86.46998926 -152.3125 72.3125 C-151.25675781 71.09240234 -151.25675781 71.09240234 -150.1796875 69.84765625 C-140.11879177 58.43448959 -129.54959508 48.33714127 -117.3125 39.3125 C-116.25160156 38.53003906 -115.19070312 37.74757812 -114.09765625 36.94140625 C-92.69323667 21.6752133 -69.11264217 11.26585156 -43.625 5.0625 C-42.61646973 4.8162085 -41.60793945 4.56991699 -40.56884766 4.31616211 C-27.0161371 1.14231507 -13.86550648 -0.07043276 0 0 Z M-40.3125 18.3125 C-41.37658836 18.56648056 -41.37658836 18.56648056 -42.46217346 18.82559204 C-69.84188049 25.36578012 -96.53153928 38.54016581 -117.6640625 57.25390625 C-118.23108887 57.75164551 -118.79811523 58.24938477 -119.38232422 58.76220703 C-120.46647682 59.72222243 -121.53944166 60.695095 -122.59814453 61.68310547 C-126.73213046 65.36028261 -130.0648522 66.14043653 -135.3125 67.3125 C-139.63906385 69.92375358 -143.31434766 73.65014454 -145.3125 78.3125 C-145.40789062 79.55128906 -145.50328125 80.79007812 -145.6015625 82.06640625 C-146.11987116 86.51598003 -148.06091853 89.43002613 -150.8125 92.875 C-151.72969712 94.09302587 -152.64233524 95.31449587 -153.55078125 96.5390625 C-154.01307129 97.16071289 -154.47536133 97.78236328 -154.95166016 98.42285156 C-182.63665257 136.8659519 -191.42606332 187.03492418 -184.41015625 233.27734375 C-175.92068849 282.76275133 -149.04802879 327.71201852 -108.3125 357.3125 C-107.45132568 357.94019287 -107.45132568 357.94019287 -106.57275391 358.58056641 C-84.77372196 374.25263341 -60.84770513 384.23715829 -34.68457031 389.79248047 C-32.63035229 390.24281851 -30.59059589 390.75819036 -28.5546875 391.28515625 C-2.2610906 397.49737969 29.09343594 393.98415204 54.6875 386.3125 C55.46206543 386.0861084 56.23663086 385.8597168 57.03466797 385.62646484 C72.34472338 381.08293224 88.92785093 375.3809137 102.01953125 366.0234375 C104.88780186 364.18404874 106.57347148 363.77462704 109.9375 363.625 C113.44835443 363.49374592 113.44835443 363.49374592 116.6875 362.3125 C116.84992188 360.67861328 116.84992188 360.67861328 117.015625 359.01171875 C117.82884268 354.53429352 118.82262689 353.74212634 122.4375 351.125 C123.4275 350.36960937 124.4175 349.61421875 125.4375 348.8359375 C125.96601563 348.43342773 126.49453125 348.03091797 127.0390625 347.61621094 C134.93671772 341.37013883 142.40391261 334.17409236 148.6875 326.3125 C149.44289063 325.38308594 150.19828125 324.45367187 150.9765625 323.49609375 C157.60226817 315.20388726 163.25745478 306.42208271 168.6875 297.3125 C169.24179687 296.40242188 169.79609375 295.49234375 170.3671875 294.5546875 C175.12082148 286.35788079 178.40491595 277.46200659 181.79443359 268.63745117 C182.36181202 267.16037496 182.93680162 265.68618257 183.52197266 264.21606445 C185.3657892 259.50595129 186.63544175 254.81878221 187.6875 249.875 C187.83960938 249.19501953 187.99171875 248.51503906 188.1484375 247.81445312 C188.69246837 245.31949187 189.18914789 242.81700071 189.6875 240.3125 C189.9455542 239.10762939 190.2036084 237.90275879 190.46948242 236.66137695 C192.62792903 226.08848039 193.12515277 215.83691374 193.02368164 205.06225586 C192.99980661 202.35305551 193.00318674 199.64482798 193.00976562 196.93554688 C192.99592685 188.48077998 192.77594678 180.54743241 190.6875 172.3125 C190.45805967 170.97267778 190.24409374 169.63009908 190.046875 168.28515625 C182.9274702 122.6023088 155.33256313 79.03595686 118.0859375 51.67578125 C116.95619679 50.88362182 115.82319554 50.09609829 114.6875 49.3125 C113.71925293 48.64226807 113.71925293 48.64226807 112.73144531 47.95849609 C95.50686096 36.16490374 77.2716543 27.65199547 57.4375 21.1875 C56.74873779 20.95788574 56.05997559 20.72827148 55.3503418 20.49169922 C52.81169937 19.69110079 50.2617577 18.9910674 47.6875 18.3125 C46.75090042 18.06155579 46.75090042 18.06155579 45.79537964 17.80554199 C32.97743859 14.46516444 20.63208083 13.68478597 7.41772461 13.79101562 C4.25621681 13.81245784 1.0969864 13.79109086 -2.06445312 13.765625 C-15.26562099 13.74828057 -27.50094581 15.16090727 -40.3125 18.3125 Z " fill="#FDFCFB" transform="translate(203.3125,4.6875)"/>
<path d="M0 0 C0 6.93 0 13.86 0 21 C-2.6186499 20.99887207 -5.2372998 20.99774414 -7.93530273 20.99658203 C-16.60870628 20.9972109 -25.28176094 21.03074878 -33.95501614 21.0802784 C-39.2112602 21.109292 -44.46705962 21.12738339 -49.72338867 21.12011719 C-54.80064146 21.11350699 -59.87701694 21.13610534 -64.95408821 21.17855453 C-66.88642311 21.18965565 -68.81884731 21.19041305 -70.75118828 21.18042374 C-83.98749549 20.70637798 -83.98749549 20.70637798 -95.50653076 26.33123779 C-100.29027322 31.67646247 -100.46117049 36.70521917 -100.51171875 43.5546875 C-100.52966995 44.45623566 -100.54762115 45.35778381 -100.56611633 46.28665161 C-100.6200415 49.14938768 -100.65405775 52.01195871 -100.6875 54.875 C-100.7206888 56.82293954 -100.7551799 58.77085736 -100.79101562 60.71875 C-100.87575772 65.47904726 -100.94265359 70.23929708 -101 75 C-102.11060791 75.03758423 -102.11060791 75.03758423 -103.24365234 75.07592773 C-109.35533047 75.33937132 -109.35533047 75.33937132 -114.7890625 77.84765625 C-115.39492187 78.57855469 -116.00078125 79.30945313 -116.625 80.0625 C-117.25664062 80.79597656 -117.88828125 81.52945313 -118.5390625 82.28515625 C-119.02117187 82.85105469 -119.50328125 83.41695313 -120 84 C-120.33 84 -120.66 84 -121 84 C-121.13949056 75.15911374 -121.24586727 66.31861067 -121.31087303 57.476861 C-121.34208503 53.37048829 -121.38436844 49.26487263 -121.45263672 45.15893555 C-121.51819681 41.1907001 -121.55378211 37.2231892 -121.56926346 33.25445366 C-121.58028478 31.74621625 -121.60180686 30.23801509 -121.63438034 28.73008919 C-121.79527762 20.96753558 -121.78850058 14.40335864 -117.07315063 7.89549255 C-110.49588178 1.88186097 -105.2273898 0.26112675 -96.37719727 0.34057617 C-94.82703667 0.32485062 -94.82703667 0.32485062 -93.24555969 0.30880737 C-89.85219927 0.28015926 -86.45986546 0.28633766 -83.06640625 0.29296875 C-80.70367664 0.27984667 -78.34095824 0.26454088 -75.97825623 0.24714661 C-69.77591015 0.20733255 -63.57385771 0.19710864 -57.37139893 0.19311523 C-51.03982643 0.18378097 -44.70842637 0.14635776 -38.37695312 0.11132812 C-25.58473248 0.04484983 -12.79241414 0 0 0 Z " fill="#21636F" transform="translate(257,151)"/>
<path d="M0 0 C5.00230198 2.45567552 8.49851535 5.9970307 11 11 C11.61930793 16.55346623 11.63915595 21.7048801 8.4609375 26.4609375 C4.56680382 30.56331362 -0.09837708 32.70492058 -5.625 33.5625 C-11.0460784 32.65898693 -14.54766682 30.53083768 -18.3125 26.5625 C-21.5247328 21.68466501 -22.69890714 17.89078873 -22 12 C-17.65053076 2.03168852 -10.68453126 -1.57640625 0 0 Z " fill="#FBFDFD" transform="translate(264,238)"/>
<path d="M0 0 C4.38970981 2.06616635 7.21096491 4.89041941 10 8.8125 C11.59115377 13.88430265 12.36689708 18.37555761 9.828125 23.25 C6.44788463 27.98930609 3.08186796 31.41338237 -2.83203125 32.5390625 C-8.46779508 32.70156159 -12.19681824 32.52828689 -16.625 28.8125 C-20.68223934 24.59532799 -22.04544826 21.36842619 -22.375 15.5625 C-22.26169243 11.01508953 -21.00641128 8.49393744 -18 5 C-12.17941408 -0.12765902 -7.69902836 -1.08948514 0 0 Z " fill="#FCFDFD" transform="translate(315,237)"/>
<path d="M0 0 C4.73850622 0.4901903 8.05724372 2.23382327 11.625 5.375 C15.58361332 10.71958091 15.41627254 15.95786666 14.625 22.375 C12.6421377 26.41154111 10.45920139 29.0250056 6.625 31.375 C1.49682877 33.08439041 -4.46890581 33.58761484 -9.546875 31.46875 C-13.52689868 28.81540088 -15.89393089 25.99245076 -17.375 21.375 C-18.03609606 16.30935143 -18.00218518 12.58457143 -15.625 8 C-14.8825 7.13375 -14.14 6.2675 -13.375 5.375 C-12.75625 4.611875 -12.1375 3.84875 -11.5 3.0625 C-7.97041151 0.25959149 -4.35291397 0.48365711 0 0 Z " fill="#FCFDFD" transform="translate(209.375,238.625)"/>
<path d="M0 0 C0.66 0 1.32 0 2 0 C1.40546697 9.59453303 1.40546697 9.59453303 -2 13 C-1.85769192 11.58297487 -1.71099254 10.1663904 -1.5625 8.75 C-1.48128906 7.96109375 -1.40007813 7.1721875 -1.31640625 6.359375 C-1.02365007 4.17635361 -0.57935581 2.1226818 0 0 Z " fill="#F09F43" transform="translate(21,167)"/>
</svg>
